<!-- Generated by IcoMoon.io -->
<svg version="1.1" xmlns="http://www.w3.org/2000/svg" width="32" height="32" viewBox="0 0 32 32">
<title>instagram</title>
<path d="M20.3 16c0 2.375-1.925 4.3-4.3 4.3s-4.3-1.925-4.3-4.3c0-2.375 1.925-4.3 4.3-4.3s4.3 1.925 4.3 4.3z"></path>
<path d="M26 8.4c-0.2-0.6-0.5-1-1-1.5-0.4-0.4-0.9-0.7-1.5-1-0.5-0.2-1.1-0.4-2.4-0.4-1.3-0.1-1.8-0.1-5.2-0.1v0c-3.4 0-3.8 0-5.2 0.1-1.1 0.1-1.8 0.3-2.3 0.5-0.6 0.2-1 0.5-1.4 1-0.5 0.4-0.8 0.8-1 1.4-0.2 0.5-0.4 1.1-0.4 2.4-0.1 1.3-0.1 1.8-0.1 5.2s0 3.8 0.1 5.2c0.1 1.2 0.3 1.9 0.4 2.4 0.2 0.6 0.5 1 1 1.5 0.4 0.4 0.9 0.7 1.5 1 0.5 0.2 1.1 0.4 2.4 0.4 1.3 0.1 1.8 0.1 5.2 0.1s3.8 0 5.2-0.1c1.2-0.1 1.9-0.3 2.4-0.4 0.6-0.2 1-0.5 1.5-1 0.4-0.4 0.7-0.9 1-1.5 0.2-0.5 0.4-1.1 0.4-2.4 0.1-1.3 0.1-1.8 0.1-5.2s0-3.8-0.1-5.2c-0.2-1.2-0.4-1.9-0.6-2.4zM16 22.6c-3.6 0-6.6-3-6.6-6.6s3-6.6 6.6-6.6c3.6 0 6.6 3 6.6 6.6s-3 6.6-6.6 6.6zM22.9 10.7c-0.9 0-1.5-0.7-1.5-1.5s0.7-1.5 1.5-1.5c0.9 0 1.5 0.7 1.5 1.5s-0.7 1.5-1.5 1.5z"></path>
<path d="M29 0h-26c-1.7 0-3 1.3-3 3v26c0 1.7 1.3 3 3 3h26c1.7 0 3-1.3 3-3v-26c0-1.7-1.3-3-3-3zM28.8 21.3c-0.1 1.4-0.3 2.3-0.6 3.1s-0.8 1.6-1.5 2.3c-0.7 0.7-1.4 1.2-2.3 1.5-0.8 0.3-1.7 0.5-3.1 0.6s-1.8 0.1-5.3 0.1c-3.5 0-3.9 0-5.3-0.1s-2.3-0.3-3.1-0.6c-0.8-0.3-1.6-0.8-2.3-1.5s-1.2-1.4-1.5-2.3c-0.3-0.8-0.5-1.7-0.6-3.1s-0.1-1.8-0.1-5.3 0-3.9 0.1-5.3 0.3-2.3 0.6-3.1c0.4-0.8 0.8-1.6 1.5-2.3s1.5-1.1 2.3-1.5c0.8-0.3 1.7-0.5 3.1-0.6s1.8-0.1 5.3-0.1v0c3.5 0 3.9 0 5.3 0.1s2.3 0.3 3.1 0.6c0.8 0.3 1.6 0.8 2.3 1.5s1.2 1.4 1.5 2.3c0.3 0.8 0.5 1.7 0.6 3.1s0.1 1.8 0.1 5.3c-0.1 3.5-0.1 3.9-0.1 5.3z"></path>
</svg>
