<svg aria-hidden="true" style="position: absolute; width: 0; height: 0; overflow: hidden;" version="1.1" xmlns="http://www.w3.org/2000/svg" xmlns:xlink="http://www.w3.org/1999/xlink">
<defs>
<symbol id="icon-embryo-small" viewBox="0 0 25 32">
<path d="M12.373 24.441c-3.407 0-6.179-2.864-6.179-6.382s2.772-6.382 6.179-6.382 6.179 2.864 6.179 6.382-2.768 6.382-6.179 6.382zM12.373 12.637c-2.879 0-5.223 2.432-5.223 5.426 0 2.99 2.344 5.426 5.223 5.426s5.223-2.432 5.223-5.426c0.004-2.994-2.34-5.426-5.223-5.426z"></path>
<path d="M12.373 26.968c-2.218 0-4.298-1.002-5.854-2.822-1.541-1.797-2.39-4.183-2.39-6.718s0.849-4.921 2.39-6.718c1.56-1.82 3.64-2.822 5.854-2.822s4.298 1.002 5.854 2.822c1.541 1.797 2.39 4.183 2.39 6.718s-0.849 4.921-2.39 6.718c-1.556 1.82-3.636 2.822-5.854 2.822zM12.373 8.848c-4.019 0-7.288 3.85-7.288 8.584s3.269 8.58 7.288 8.58c4.019 0 7.288-3.85 7.288-8.58s-3.265-8.584-7.288-8.584z"></path>
<path d="M12.373 29.668c-1.407 0-2.768-0.344-4.049-1.025-1.227-0.65-2.332-1.579-3.277-2.764-1.923-2.409-2.982-5.609-2.982-9.005s1.059-6.596 2.982-9.005c0.944-1.181 2.046-2.111 3.277-2.764 1.281-0.681 2.646-1.025 4.049-1.025 1.407 0 2.768 0.344 4.049 1.025 1.227 0.65 2.332 1.579 3.277 2.764 1.923 2.409 2.982 5.609 2.982 9.005s-1.059 6.596-2.982 9.005c-0.944 1.181-2.046 2.111-3.277 2.764-1.277 0.681-2.642 1.025-4.049 1.025zM12.373 5.040c-5.158 0-9.353 5.311-9.353 11.838s4.195 11.838 9.353 11.838 9.353-5.311 9.353-11.838-4.195-11.838-9.353-11.838z"></path>
<path d="M12.373 32c-1.686 0-3.323-0.428-4.86-1.277-1.476-0.811-2.799-1.973-3.931-3.445-2.309-3.009-3.583-7.001-3.583-11.242s1.273-8.236 3.583-11.242c1.132-1.476 2.455-2.635 3.931-3.445 1.537-0.849 3.174-1.277 4.86-1.277s3.323 0.428 4.86 1.277c1.476 0.811 2.799 1.973 3.931 3.445 2.309 3.009 3.583 7.001 3.583 11.242s-1.273 8.236-3.583 11.242c-1.132 1.476-2.455 2.634-3.931 3.445-1.533 0.849-3.17 1.277-4.86 1.277zM12.373 1.025c-6.294 0-11.417 6.733-11.417 15.012s5.124 15.012 11.417 15.012 11.417-6.733 11.417-15.012-5.12-15.012-11.417-15.012z"></path>
</symbol>
<symbol id="icon-embryo" viewBox="0 0 25 32">
<path d="M12.339 26.191c-2.133 0-4.137-0.858-5.644-2.419-1.503-1.558-2.331-3.628-2.331-5.827s0.828-4.269 2.331-5.827c1.506-1.561 3.511-2.419 5.644-2.419s4.137 0.858 5.644 2.419c1.503 1.558 2.331 3.628 2.331 5.827s-0.828 4.269-2.331 5.827c-1.506 1.561-3.511 2.419-5.644 2.419zM12.339 10.287c-4.075 0-7.388 3.437-7.388 7.659s3.313 7.659 7.388 7.659 7.388-3.437 7.388-7.659-3.313-7.659-7.388-7.659z"></path>
<path d="M12.339 28.134c-2.492 0-4.83-1.129-6.585-3.177-1.744-2.038-2.708-4.742-2.708-7.615s0.96-5.578 2.708-7.615c1.755-2.049 4.097-3.177 6.585-3.177s4.83 1.129 6.585 3.177c1.744 2.038 2.708 4.742 2.708 7.615s-0.96 5.578-2.708 7.615c-1.755 2.049-4.093 3.177-6.585 3.177zM12.339 7.135c-4.801 0-8.707 4.577-8.707 10.206s3.907 10.206 8.707 10.206 8.707-4.577 8.707-10.206-3.907-10.206-8.707-10.206z"></path>
<path d="M12.339 30.076c-1.448 0-2.847-0.355-4.167-1.055-1.268-0.671-2.408-1.634-3.383-2.855-1.997-2.503-3.097-5.823-3.097-9.356s1.099-6.853 3.097-9.356c0.975-1.224 2.115-2.184 3.383-2.855 1.319-0.7 2.723-1.055 4.167-1.055 1.448 0 2.847 0.355 4.167 1.055 1.268 0.671 2.408 1.634 3.383 2.855 1.997 2.503 3.097 5.823 3.097 9.356s-1.099 6.853-3.097 9.356c-0.975 1.224-2.115 2.184-3.383 2.855-1.319 0.7-2.719 1.055-4.167 1.055zM12.339 4.13c-5.548 0-10.063 5.688-10.063 12.68s4.515 12.68 10.063 12.68 10.063-5.688 10.063-12.68-4.515-12.68-10.063-12.68z"></path>
<path d="M12.339 32c-1.678 0-3.306-0.429-4.837-1.272-1.473-0.81-2.793-1.968-3.925-3.445-2.316-3.016-3.591-7.025-3.591-11.284s1.275-8.264 3.591-11.284c1.132-1.473 2.452-2.631 3.925-3.445 1.532-0.843 3.159-1.272 4.837-1.272s3.306 0.429 4.837 1.272c1.473 0.81 2.793 1.968 3.925 3.445 2.316 3.016 3.591 7.025 3.591 11.284s-1.275 8.264-3.591 11.284c-1.132 1.473-2.452 2.631-3.925 3.445-1.532 0.843-3.159 1.272-4.837 1.272zM12.339 0.594c-6.49 0-11.767 6.912-11.767 15.41s5.277 15.41 11.767 15.41 11.767-6.912 11.767-15.41-5.277-15.41-11.767-15.41z"></path>
</symbol>
<symbol id="icon-instagram" viewBox="0 0 32 32">
<path d="M20.3 16c0 2.375-1.925 4.3-4.3 4.3s-4.3-1.925-4.3-4.3c0-2.375 1.925-4.3 4.3-4.3s4.3 1.925 4.3 4.3z"></path>
<path d="M26 8.4c-0.2-0.6-0.5-1-1-1.5-0.4-0.4-0.9-0.7-1.5-1-0.5-0.2-1.1-0.4-2.4-0.4-1.3-0.1-1.8-0.1-5.2-0.1v0c-3.4 0-3.8 0-5.2 0.1-1.1 0.1-1.8 0.3-2.3 0.5-0.6 0.2-1 0.5-1.4 1-0.5 0.4-0.8 0.8-1 1.4-0.2 0.5-0.4 1.1-0.4 2.4-0.1 1.3-0.1 1.8-0.1 5.2s0 3.8 0.1 5.2c0.1 1.2 0.3 1.9 0.4 2.4 0.2 0.6 0.5 1 1 1.5 0.4 0.4 0.9 0.7 1.5 1 0.5 0.2 1.1 0.4 2.4 0.4 1.3 0.1 1.8 0.1 5.2 0.1s3.8 0 5.2-0.1c1.2-0.1 1.9-0.3 2.4-0.4 0.6-0.2 1-0.5 1.5-1 0.4-0.4 0.7-0.9 1-1.5 0.2-0.5 0.4-1.1 0.4-2.4 0.1-1.3 0.1-1.8 0.1-5.2s0-3.8-0.1-5.2c-0.2-1.2-0.4-1.9-0.6-2.4zM16 22.6c-3.6 0-6.6-3-6.6-6.6s3-6.6 6.6-6.6c3.6 0 6.6 3 6.6 6.6s-3 6.6-6.6 6.6zM22.9 10.7c-0.9 0-1.5-0.7-1.5-1.5s0.7-1.5 1.5-1.5c0.9 0 1.5 0.7 1.5 1.5s-0.7 1.5-1.5 1.5z"></path>
<path d="M29 0h-26c-1.7 0-3 1.3-3 3v26c0 1.7 1.3 3 3 3h26c1.7 0 3-1.3 3-3v-26c0-1.7-1.3-3-3-3zM28.8 21.3c-0.1 1.4-0.3 2.3-0.6 3.1s-0.8 1.6-1.5 2.3c-0.7 0.7-1.4 1.2-2.3 1.5-0.8 0.3-1.7 0.5-3.1 0.6s-1.8 0.1-5.3 0.1c-3.5 0-3.9 0-5.3-0.1s-2.3-0.3-3.1-0.6c-0.8-0.3-1.6-0.8-2.3-1.5s-1.2-1.4-1.5-2.3c-0.3-0.8-0.5-1.7-0.6-3.1s-0.1-1.8-0.1-5.3 0-3.9 0.1-5.3 0.3-2.3 0.6-3.1c0.4-0.8 0.8-1.6 1.5-2.3s1.5-1.1 2.3-1.5c0.8-0.3 1.7-0.5 3.1-0.6s1.8-0.1 5.3-0.1v0c3.5 0 3.9 0 5.3 0.1s2.3 0.3 3.1 0.6c0.8 0.3 1.6 0.8 2.3 1.5s1.2 1.4 1.5 2.3c0.3 0.8 0.5 1.7 0.6 3.1s0.1 1.8 0.1 5.3c-0.1 3.5-0.1 3.9-0.1 5.3z"></path>
</symbol>
<symbol id="icon-twitter" viewBox="0 0 32 32">
<path d="M32 7.075c-1.175 0.525-2.444 0.875-3.769 1.031 1.356-0.813 2.394-2.1 2.887-3.631-1.269 0.75-2.675 1.3-4.169 1.594-1.2-1.275-2.906-2.069-4.794-2.069-3.625 0-6.563 2.938-6.563 6.563 0 0.512 0.056 1.012 0.169 1.494-5.456-0.275-10.294-2.888-13.531-6.862-0.563 0.969-0.887 2.1-0.887 3.3 0 2.275 1.156 4.287 2.919 5.463-1.075-0.031-2.087-0.331-2.975-0.819 0 0.025 0 0.056 0 0.081 0 3.181 2.263 5.838 5.269 6.437-0.55 0.15-1.131 0.231-1.731 0.231-0.425 0-0.831-0.044-1.237-0.119 0.838 2.606 3.263 4.506 6.131 4.563-2.25 1.762-5.075 2.813-8.156 2.813-0.531 0-1.050-0.031-1.569-0.094 2.913 1.869 6.362 2.95 10.069 2.95 12.075 0 18.681-10.006 18.681-18.681 0-0.287-0.006-0.569-0.019-0.85 1.281-0.919 2.394-2.075 3.275-3.394z"></path>
</symbol>
<symbol id="icon-linkedin" viewBox="0 0 32 32">
<path d="M29 0h-26c-1.65 0-3 1.35-3 3v26c0 1.65 1.35 3 3 3h26c1.65 0 3-1.35 3-3v-26c0-1.65-1.35-3-3-3zM12 26h-4v-14h4v14zM10 10c-1.106 0-2-0.894-2-2s0.894-2 2-2c1.106 0 2 0.894 2 2s-0.894 2-2 2zM26 26h-4v-8c0-1.106-0.894-2-2-2s-2 0.894-2 2v8h-4v-14h4v2.481c0.825-1.131 2.087-2.481 3.5-2.481 2.488 0 4.5 2.238 4.5 5v9z"></path>
</symbol>
<symbol id="icon-facebook" viewBox="0 0 32 32">
<path d="M29 0h-26c-1.65 0-3 1.35-3 3v26c0 1.65 1.35 3 3 3h13v-14h-4v-4h4v-2c0-3.306 2.694-6 6-6h4v4h-4c-1.1 0-2 0.9-2 2v2h6l-1 4h-5v14h9c1.65 0 3-1.35 3-3v-26c0-1.65-1.35-3-3-3z"></path>
</symbol>
<symbol id="icon-tiktok" viewBox="0 0 32 32">
<path d="M16.707 0.027c1.747-0.027 3.48-0.013 5.213-0.027 0.107 2.040 0.84 4.12 2.333 5.56 1.493 1.48 3.6 2.16 5.653 2.387v5.373c-1.92-0.067-3.853-0.467-5.6-1.293-0.76-0.347-1.467-0.787-2.16-1.24-0.013 3.893 0.013 7.787-0.027 11.667-0.107 1.867-0.72 3.72-1.8 5.253-1.747 2.56-4.773 4.227-7.88 4.28-1.907 0.107-3.813-0.413-5.44-1.373-2.693-1.587-4.587-4.493-4.867-7.613-0.027-0.667-0.040-1.333-0.013-1.987 0.24-2.533 1.493-4.96 3.44-6.613 2.213-1.92 5.307-2.84 8.2-2.293 0.027 1.973-0.053 3.947-0.053 5.92-1.32-0.427-2.867-0.307-4.027 0.493-0.84 0.547-1.48 1.387-1.813 2.333-0.28 0.68-0.2 1.427-0.187 2.147 0.32 2.187 2.427 4.027 4.667 3.827 1.493-0.013 2.92-0.88 3.693-2.147 0.253-0.44 0.533-0.893 0.547-1.413 0.133-2.387 0.080-4.76 0.093-7.147 0.013-5.373-0.013-10.733 0.027-16.093z"></path>
</symbol>
</defs>
</svg>
